<svg xmlns="http://www.w3.org/2000/svg" viewBox="0 0 320 320" role="img" aria-label="CodeRabbit logo">
  <circle cx="160" cy="160" r="160" fill="#D75D2C"/>
  <path d="M268.65 133.5c0 0-22.3-28.5-50.33-30.13-18.08-1.06-22.46 1.36-23.24 3.16-1.12-9.33-9.1-52.56-64.17-61.72 7.02 50.56 36.04 37.39 53.13 72.23 0 0-28.8-39.23-76.15-24.82 0 0 17.27 36.25 68.31 43.66 0 0 4.09 14.22 5.32 16.72 0 0-78.67-41.02-102.55 37.66-17.79-4.03-23.76 15.24-3.31 28.43 0 0 3.48-13.81 11.96-17.91 0 0-18.19 20.27 3.19 44.55h76.67c1.86-3.08 10.06-19.27-10.21-31.48 14.3-.2 25.95 26.78 38.47 31.6h18.26c.62-1.5 1.91-5.98-1.12-10.03-4.66-5.35-14.87-4.63-14.78-14.52 3.53-46.01 72.52-31.9 70.33-87.25Z" fill="#fff"/>
</svg>
